/* XPM */
static char *_817dc2e737144becda69940a9521af5cWmFVuKnkKWWWAtl[] = {
/* columns rows colors chars-per-pixel */
"32 32 173 2 ",
"   c None",
".  c #050100",
"X  c #0A0400",
"o  c #0E0900",
"O  c #130D00",
"+  c #1A1200",
"@  c #1D1B0F",
"#  c #1B1A17",
"$  c #211700",
"%  c #231C00",
"&  c #281E00",
"*  c #2A2100",
"=  c #322700",
"-  c #352B00",
";  c #3D2F00",
":  c #3D3500",
">  c #3A350F",
",  c #373004",
"<  c #393512",
"1  c #3C3812",
"2  c #252524",
"3  c #3C3C34",
"4  c #433500",
"5  c #4E3D00",
"6  c #423F30",
"7  c #4E4100",
"8  c #4E430B",
"9  c #5A4D04",
"0  c #524606",
"q  c #5D5105",
"w  c #4C451B",
"e  c #544B14",
"r  c #6C5E17",
"t  c #6D6213",
"y  c #514C2E",
"u  c #595224",
"i  c #42413C",
"p  c #565030",
"a  c #6B6028",
"s  c #7A6C25",
"d  c #7D7127",
"f  c #6E6739",
"g  c #5C5746",
"h  c #5A5956",
"j  c #676245",
"k  c #6F6B52",
"l  c #726F5C",
"z  c #7F7A5B",
"x  c #7B7656",
"c  c #6A6964",
"v  c #73736D",
"b  c #777468",
"n  c #7D7C77",
"m  c #8F7D17",
"M  c #867D37",
"N  c #877F58",
"B  c #92801C",
"V  c #A8931E",
"C  c #908239",
"Z  c #A9982C",
"A  c #B49F28",
"S  c #B3A22C",
"D  c #C4AE34",
"F  c #CAB238",
"G  c #E5C604",
"H  c #E9C703",
"J  c #E9C905",
"K  c #E8CA09",
"L  c #F3D306",
"P  c #F1D30E",
"I  c #F9D90B",
"U  c #FAD709",
"Y  c #ECCE18",
"T  c #EFD212",
"R  c #F5D613",
"E  c #F8D714",
"W  c #F6D815",
"Q  c #F8D913",
"!  c #F3D51C",
"~  c #F6D91B",
"^  c #FADC1C",
"/  c #FFE11E",
"(  c #EFD520",
")  c #F5DB22",
"_  c #FBDE25",
"`  c #F5DA2C",
"'  c #FADE2B",
"]  c #E7CF3B",
"[  c #ECD23D",
"{  c #E6D03E",
"}  c #F5DC34",
"|  c #F9DE34",
" . c #F6DD3C",
".. c #F8DD38",
"X. c #FEE123",
"o. c #FDE12B",
"O. c #FCE234",
"+. c #F7E03E",
"@. c #FCE33C",
"#. c #FFEB3C",
"$. c #9E9548",
"%. c #8A8459",
"&. c #AB9C4E",
"*. c #A59C51",
"=. c #B2A34E",
"-. c #B5AA5A",
";. c #8A8366",
":. c #928C65",
">. c #8C8873",
",. c #8E8B78",
"<. c #9B967D",
"1. c #ACA57B",
"2. c #BBB27B",
"3. c #C7BB6F",
"4. c #D2C05C",
"5. c #EDD444",
"6. c #E5D246",
"7. c #F5DD43",
"8. c #F9DF40",
"9. c #F4DF4E",
"0. c #E9D558",
"q. c #F1DC5D",
"w. c #F7E044",
"e. c #FDE443",
"r. c #FFEC45",
"t. c #F6E24D",
"y. c #FDE54B",
"u. c #FFEB4B",
"i. c #FFF14E",
"p. c #F5E051",
"a. c #FCE653",
"s. c #FFEE53",
"d. c #FCE75D",
"f. c #FAE85E",
"g. c #FFF355",
"h. c #FFF25D",
"j. c #EDD960",
"k. c #F6E462",
"l. c #FAE660",
"z. c #FEEE62",
"x. c #F2E16C",
"c. c #FEED6E",
"v. c #FFF162",
"b. c #FFF16F",
"n. c #F3E374",
"m. c #FEEE73",
"M. c #F7E878",
"N. c #FFF070",
"B. c #FEF17D",
"V. c #999588",
"C. c #A09D8E",
"Z. c #B2AF9E",
"A. c #BBB8A8",
"S. c #C0BCB0",
"D. c #DCD381",
"F. c #E4DC99",
"G. c #EEE087",
"H. c #FFF887",
"J. c #FFF68B",
"K. c #FFF487",
"L. c #FDEF91",
"P. c #F7EC92",
"I. c #FDF193",
"U. c #C4C2BB",
"Y. c #CCC9BB",
"T. c #FFFAAF",
"R. c #FDF6A8",
"E. c #D3D1C7",
"W. c #DCD7C4",
"Q. c #DDDBD3",
"!. c #E1DECD",
"~. c #E3E0CF",
"^. c #FFFFFB",
/* pixels */
"                      h # 2 2 2 2 2 2 # v                       ",
"                      i X o o o X X o . g                       ",
"                  @ + 1.F.D.D.D.D.D.D.F.:.O # X                 ",
"              b O % $ 3.J.N.N.c.N.b.c.H.=.+ * O ,.              ",
"            . N R.G.G.x.p.+.....} +.+.+.7.6.6.n.a X             ",
"          >.* *.J.l.d.e.} _ ) ^ ^ ^ / ^ _ X.o.y.m * <.Y.        ",
"        X f R.n.9.+.} Y K J J J J J J G T X.X.o.7.M.0 .         ",
"      ,.w $.B.y.O._ ~ R P P R P T P P P R W ^ / _ y.m 8 V.      ",
"    . y T.M.9.O.o.T G ^ X.o.o.o.' o.X.X.W H R / X._ e.M.- .     ",
"    . u I.f. .' ! R R ^ o.O.e.e.e.#.O.o.^ P R R ^ _ ' p.4 X     ",
"    . e J.p.| R G W o.o.} g.h.h.v.g.r.o.X./ Q G ) ' ' p.; X     ",
"c l %.-.c. .! R W ^ ' #.u.w.w.w.e.+.| ~ ^ / ^ ! | r.| 8.Z M l c ",
". < T.B.t.` K Q X._ | u.g.} ( ~ ! ! R P R / X.' u.h.O.} y.x.+ X ",
". 1 P.k.+.! H R / _ | s.s.} W I I I U L R / X.' s.v.+.o.) 6.* o ",
". > I.l.| ! J Q X.X...u.s.} T I I I U L Q / / } f.v.@.o.~ { * . ",
". < I.d.| W J Q / _ ..u.s.} ! I I I U L Q / X.` s.v.@.o.~ { * . ",
". > L.d.| W H Q / o.} s.s.} R I I I I L E / X.| a.v.+.' ^ ] & . ",
". > L.d.| E H R / o...u.s.} W I I I I L I / ^ o.a.v.e._ E [ & . ",
". < L.d.' E J Q / _ } u.s.} R I I I U L Q / / ' d.z.+._ ~ ] * X ",
". < R.m.| E H R / X.} r.i.} Q I I I I L Q X.X.} s.h.#.' | 0.% . ",
"3 p Z.4.w.~ P Q ^ ^ o.#.#.) Q I U I I I W X.O.w.u.u.O...D &.y 6 ",
"^.Y.o 9 w.X.X.P J Q o.X.X.! P L L L R / o.` e.g.e.} ~ ..4 X Q.  ",
"  E.X 9 p.~ X.W P ! W ^ _ Q Q Q R R Q X.O.e.r.u.@._ ! [ 4 X Q.  ",
"  S.. e m.+.' / / P J ^ _ ' ' ' o.o.o.` e.g.e.} ' ' O.x.- .     ",
"    b N d S w.^ X.~ ! O.y.a.a.a.a.a.a.a.y.r.O._ ^ } V s N n     ",
"      Z.. t N.+.o.X.o.u.h.v.v.h.z.h.z.h.r.} X.o.} d.0 X Y.      ",
"        V.%.q S +.) ' O.@.e.e.@.e.e.@.@.' ^ Q O.V 9 :.C.        ",
"          V.X M m.w.y. .| ' ' ' _ ' ' | }  .[ k.r X Z.          ",
"            A.z : 7 5 F | E _ E ^ E ~ ..A 4 7 : ;.S.            ",
"              b . o X &.q.[ [ 5.[ 5.5.j.C X O . V.              ",
"                  E.W.p & = = = = = = % j !.E.                  ",
"                    ^.3 . X . . . . . . h ^.                    "
};
