/* XPM */
static char *_852_95d639e8ef606174330d74d3703897519fdc973a3fead6ec318882cf5dc33e0f[] = {
/* columns rows colors chars-per-pixel */
"32 32 77 1 ",
"  c #000001",
". c #010101",
"X c #000002",
"o c #020202",
"O c #030202",
"+ c #030302",
"@ c #040303",
"# c #040403",
"$ c #050404",
"% c gray2",
"& c #060505",
"* c #060605",
"= c #060606",
"- c #070606",
"; c #080702",
": c #0A0903",
"> c #060608",
", c #07070A",
"< c gray3",
"1 c #090909",
"2 c #08080B",
"3 c #0A0A0B",
"4 c #0A0A0C",
"5 c #141103",
"6 c #151205",
"7 c #161205",
"8 c #161206",
"9 c #0F1010",
"0 c #121214",
"q c #151617",
"w c #18181A",
"e c #1A1B1C",
"r c #1C1C1E",
"t c #1E1E1F",
"y c #352F0D",
"u c #1F1F21",
"i c #202122",
"p c #212223",
"a c #222223",
"s c #222324",
"d c #232324",
"f c gray14",
"g c gray15",
"h c #463C0D",
"j c #4C4312",
"k c #5F5313",
"l c #5F5414",
"z c #625511",
"x c #7C6B10",
"c c #7C6B11",
"v c #87740C",
"b c #88750E",
"n c #8E7C17",
"m c #8F7E1B",
"M c #917F1B",
"N c #BDA40A",
"B c #BEA40B",
"V c #BFA60D",
"C c #C8AF1C",
"Z c #CAB324",
"A c #CCB424",
"S c #CDB524",
"D c #EFCD00",
"F c #EFCE00",
"G c #EFCE03",
"H c #EFCE04",
"J c #F1D004",
"K c #F1D007",
"L c #FBDC17",
"P c #FCDD1A",
"I c #FFE021",
"U c #FFE320",
"Y c #FFE321",
"T c #FFE323",
"R c #FFE124",
"E c #FFE324",
"W c None",
/* pixels */
"WWWWWWWWWWWWWWWWWWWWWWWWWWWWWWWW",
"WWWWWWWWWWWWWWWWWWWWWWWWWWWWWWWW",
"WWWWWWWWWWWWW342,>1WWWWWWWWWWWWW",
"WWWWWWWWWWWW9;jklyoWWWWWWWWWWWWW",
"WWWWWWWWWWWW06ZIRmOWWWWWWWWWWWWW",
"WWWWWWWWWWWWq7SUTMOWWWWWWWWWWWWW",
"WWWWWWWWWWWWw7AUTMOWWWWWWWWWWWWW",
"WWWWWWWWWWWWe7AUTM+WWWWWWWWWWWWW",
"WWWWWWWWWWWWr7AUTM+WWWWWWWWWWWWW",
"WWWWWWWWWWWWt7AUTM+WWWWWWWWWWWWW",
"WWWWWWWWWWWWu7AUTM@WWWWWWWWWWWWW",
"WWWWWWWWWWWWi7AUTM@WWWWWWWWWWWWW",
"WWWWWWWWWWWWp7AUTM@WWWWWWWWWWWWW",
"WWWWWWWWWWWWa7AUTM@WWWWWWWWWWWWW",
"WWWWWWWWWWWWs8SYEM#WWWWWWWWWWWWW",
"WWWWWWWWWWWWd6CLPn#WWWWWWWWWWWWW",
"WWWWWWWWWWWWd5BFHv$WWWWWWWWWWWWW",
"WWWWWWWWWWWWd5NDGv$WWWWWWWWWWWWW",
"WWWWWWWWWWWWd5NDGv$WWWWWWWWWWWWW",
"WWWWWWWWWWWWd5NDGv%WWWWWWWWWWWWW",
"WWWWWWWWWWWWd5NDGv%WWWWWWWWWWWWW",
"WWWWWWWWWWWWd5NDGv&WWWWWWWWWWWWW",
"WWWWWWWWWWWWd5NDGv&WWWWWWWWWWWWW",
"WWWWWWWWWWWWd5NDGv&WWWWWWWWWWWWW",
"WWWWWWWWWWWWd5NDGv*WWWWWWWWWWWWW",
"WWWWWWWWWWWWd5NDGv=WWWWWWWWWWWWW",
"WWWWWWWWWWWWd5NDGv=WWWWWWWWWWWWW",
"WWWWWWWWWWWWd5NDGv-WWWWWWWWWWWWW",
"WWWWWWWWWWWWd5VJKb-WWWWWWWWWWWWW",
"WWWWWWWWWWWWf:zxch-WWWWWWWWWWWWW",
"WWWWWWWWWWWWg. X  <WWWWWWWWWWWWW",
"WWWWWWWWWWWWWWWWWWWWWWWWWWWWWWWW"
};
