/* XPM */
static char *_0282_0065f56fbbfc296faf83665e9b5185f99f47f0be781ecb946a479b1168564d24[] = {
/* columns rows colors chars-per-pixel */
"32 32 120 2 ",
"   c #030303",
".  c #0B0803",
"X  c #070709",
"o  c #0A0A0B",
"O  c #120F02",
"+  c #110F08",
"@  c #141002",
"#  c #13110B",
"$  c #111111",
"%  c #191711",
"&  c #191814",
"*  c #18191D",
"=  c #201E18",
"-  c #382F09",
";  c #222014",
":  c #25241C",
">  c #3D381F",
",  c #212223",
"<  c #282726",
"1  c #2B2A23",
"2  c #2D2D2D",
"3  c #333126",
"4  c #3F3B26",
"5  c #2F3032",
"6  c #303032",
"7  c #3B3C3C",
"8  c #473C05",
"9  c #453E20",
"0  c #564A0C",
"q  c #584C0C",
"w  c #574D14",
"e  c #5C531D",
"r  c #605519",
"t  c #7D6C04",
"y  c #6D6012",
"u  c #766610",
"i  c #7F6E13",
"p  c #46432C",
"a  c #484328",
"s  c #5E5524",
"d  c #4B4839",
"f  c #5E5733",
"g  c #5F5834",
"h  c #665F3C",
"j  c #716626",
"k  c #696235",
"l  c #696239",
"z  c #7F753F",
"x  c #5F5C48",
"c  c #5B5B5A",
"v  c #666245",
"b  c #77714B",
"n  c #817117",
"m  c #847521",
"M  c #99850C",
"N  c #A79211",
"B  c #A6921E",
"V  c #B29B14",
"C  c #BCA61D",
"Z  c #928223",
"A  c #A0902E",
"S  c #B29F22",
"D  c #B7A326",
"F  c #B9A526",
"G  c #B8A429",
"H  c #CEB40D",
"J  c #D3B913",
"K  c #C7B021",
"L  c #C8B121",
"P  c #D7BE24",
"I  c #D8BE22",
"U  c #DEC318",
"Y  c #EECD03",
"T  c #E2C60E",
"R  c #EDCD0B",
"E  c #F0CF06",
"W  c #F4D405",
"Q  c #F8D707",
"!  c #F4D40B",
"~  c #F9D90A",
"^  c #E4C712",
"/  c #E0C51F",
"(  c #EFD21D",
")  c #F5D612",
"_  c #F7D812",
"`  c #F9DA13",
"'  c #F4D619",
"]  c #FCDD1B",
"[  c #FEE01F",
"{  c #E6CD24",
"}  c #EACE20",
"|  c #ECD023",
" . c #FADE24",
".. c #F6DA29",
"X. c #F8DD29",
"o. c #F3D932",
"O. c #FADF30",
"+. c #F6DD38",
"@. c #FEE121",
"#. c #FEE22C",
"$. c #FBE037",
"%. c #FDE23A",
"&. c #948A4E",
"*. c #958B51",
"=. c #A2954A",
"-. c #BEAE43",
";. c #AAA060",
":. c #C9BB69",
">. c #DAC646",
",. c #D7C65A",
"<. c #FCE446",
"1. c #FDE549",
"2. c #FCE652",
"3. c #FEE855",
"4. c #EEDE70",
"5. c #FEEA63",
"6. c #FFEE76",
"7. c #FDEC7A",
"8. c #FFF178",
"9. c None",
/* pixels */
"9.9.9.9.9.9.9.9.9.9.9.9.9.9.9.9.9.9.9.9.9.9.9.9.9.9.9.9.9.9.9.9.",
"9.9.9.9.9.9.9.9.9.9.9.9.9.9.9.9.9.9.9.9.9.9.9.9.9.9.9.9.9.9.9.9.",
"9.9.9.9.9.9.9.9.9.9.9.9.$ X X X X X X X 9.9.9.9.9.9.9.9.9.9.9.9.",
"9.9.9.9.9.9.9.9.9.9.9.x h f g g g g s r v 9.9.9.9.9.9.9.9.9.9.9.",
"9.9.9.9.9.9.9.9.9.9.$ k 7.7.7.7.7.7.2...w $ 9.9.9.9.9.9.9.9.9.9.",
"9.9.9.9.9.9.9.9.5 d *.-.o.o.o.o.o.o.X. .C Z p 9.9.9.9.9.9.9.9.9.",
"9.9.9.9.9.9.9.9.1 9 4.<.Y Y Y Y Y Y ! ] @.{ - 3 9.9.9.9.9.9.9.9.",
"9.9.9.9.9.9.7 : ;.,.{ ' ] ' ] ] ' ] ) E ] ] P A = 9.9.9.9.9.9.9.",
"9.9.9.9.9.9.2 # :.5.R ! @.$.%.%.$.@.) Y ` @.@.F . X 9.9.9.9.9.9.",
"9.9.9.9.9.9.2 + :.5.R ! @.3.6.6.5.#.! Y ] @.@.D . o 9.9.9.9.9.9.",
"9.9.9.9.9., v z >.+.) ..1.1.1.1.%.] ~ ) ! _ ] P u e 9.9.9.9.9.9.",
"9.9.9.9.9.. &.6.| Y ] 1.7.+.~ ~ W W `  .! Y ] ] ~ i   9.9.9.9.9.",
"9.9.9.9.9.X &.6.' W ] 1.7.%.~ ~ ~ W ~ @.W Y ] ` W t   9.9.9.9.9.",
"9.9.9.9.9.X &.6.( R ] 1.7.$.~ ~ ~ W ` @.! Y ] ] Q t   9.9.9.9.9.",
"9.9.9.9.9.X &.6.( E ] 1.7.$.~ ~ ~ W ~ @.! Y ] ] Q t   9.9.9.9.9.",
"9.9.9.9.9.X &.6.( E ] 1.7.$.~ ~ Q W ` @.! Y ] ` Q t   9.9.9.9.9.",
"9.9.9.9.9.. &.6.' Y [ 1.6.$.~ ~ ~ W ` [ W Y ] ` Q t   9.9.9.9.9.",
"9.9.9.9.9.X &.6.} W ] 1.7.$.~ ~ Q W ` [ ! Y ] ] Q t   9.9.9.9.9.",
"9.9.9.9.9.X &.6.| E ] 1.7.$.~ ~ Q W ~ @.! Y ] ] Q t   9.9.9.9.9.",
"9.9.9.9.9.X &.6.' E ] 1.7.$.~ ~ Q W ` @.! Y ] ] Q t   9.9.9.9.9.",
"9.9.9.9.9.X &.6.( E ] 1.7.$.~ ~ Q W ~ @.! Y ] ` W t   9.9.9.9.9.",
"9.9.9.9.9.X &.8.( E ] 1.7.%.~ ~ Q W ` [ ! Y [ ` ~ t   9.9.9.9.9.",
"9.9.9.9.9.2 b =.{ ! ` O.3. .Q Q ~ _ ` ) ! ! ] U M j 2 9.9.9.9.9.",
"9.9.9.9.9.9.2 O K ] Y )  ._ W Q ~  ._ Y _  .~ V . < 9.9.9.9.9.9.",
"9.9.9.9.9.9.2 O K ] Y !  .] ` ` ]  .) Y ` ] ~ V . X 9.9.9.9.9.9.",
"9.9.9.9.9.9.7 ; D ( Y ! ] ] ] ] ] ] ) Y ` ] ^ B % 9.9.9.9.9.9.9.",
"9.9.9.9.9.9.9.9.4 0 ' ~ ! E Y W E E ) ] ` T 8 p 9.9.9.9.9.9.9.9.",
"9.9.9.9.9.9.9.9.* a D J R Y Y Y Y Y Q ] H N 4 , 9.9.9.9.9.9.9.9.",
"9.9.9.9.9.9.9.9.9.9.# r @.` W W W W ~ ) q & 9.9.9.9.9.9.9.9.9.9.",
"9.9.9.9.9.9.9.9.9.9.5 l m n i i i i i i h 6 9.9.9.9.9.9.9.9.9.9.",
"9.9.9.9.9.9.9.9.9.9.9.7 X             X c 9.9.9.9.9.9.9.9.9.9.9.",
"9.9.9.9.9.9.9.9.9.9.9.9.9.9.9.9.9.9.9.9.9.9.9.9.9.9.9.9.9.9.9.9."
};
