/* XPM */
static char *_1942_9c6b0d12280ba22c2f31a44507c49c4fcb93e354155dc8a04f52fb5e157f2165[] = {
/* columns rows colors chars-per-pixel */
"32 32 163 2 ",
"   c #C2171D",
".  c #C4171E",
"X  c #C7171E",
"o  c #CA181F",
"O  c #CB181F",
"+  c #CD181F",
"@  c #CE181F",
"#  c #CF181F",
"$  c #CF1820",
"%  c #D01820",
"&  c #D21920",
"*  c #D51920",
"=  c #D91A21",
"-  c #DC1A21",
";  c #E21B22",
":  c #E31B22",
">  c #E51921",
",  c #E41B23",
"<  c #E51B23",
"1  c #E61B23",
"2  c #E71B23",
"3  c #E21D24",
"4  c #E21D25",
"5  c #E61C24",
"6  c #E91921",
"7  c #E91A22",
"8  c #E91B22",
"9  c #E81B23",
"0  c #E91B23",
"q  c #ED1921",
"w  c #ED1922",
"e  c #ED1A22",
"r  c #ED1A23",
"t  c #ED1B23",
"y  c #EE1B23",
"u  c #E91C23",
"i  c #ED1B24",
"p  c #E81C24",
"a  c #EA1C24",
"s  c #EB1C24",
"d  c #EB1E25",
"f  c #EB1E26",
"g  c #EC1C24",
"h  c #ED1C24",
"j  c #ED1D25",
"k  c #EE1C24",
"l  c #EF1D25",
"z  c #ED1E26",
"x  c #ED1F27",
"c  c #E72129",
"v  c #EB222A",
"b  c #ED2129",
"n  c #ED222A",
"m  c #ED242C",
"M  c #EE252D",
"N  c #ED272F",
"B  c #F02128",
"V  c #E72930",
"C  c #EE2A31",
"Z  c #EE2B32",
"A  c #EE2C33",
"S  c #E92D34",
"D  c #EE2D34",
"F  c #EE2D35",
"G  c #EE2E35",
"H  c #EF2F36",
"J  c #EA3239",
"K  c #ED3139",
"L  c #EF3138",
"P  c #ED3239",
"I  c #EF333A",
"U  c #EF353C",
"Y  c #EE373E",
"T  c #EF373E",
"R  c #EF383F",
"E  c #F0373E",
"W  c #EF3A41",
"Q  c #F03D44",
"!  c #F03F46",
"~  c #EC4047",
"^  c #EE444A",
"/  c #EE454C",
"(  c #F04248",
")  c #F1454B",
"_  c #F24E54",
"`  c #F2555B",
"'  c #F2565C",
"]  c #F2575D",
"[  c #F2585D",
"{  c #F2595F",
"}  c #F25A60",
"|  c #F25D63",
" . c #F36469",
".. c #F56B6F",
"X. c #F46F74",
"o. c #F67377",
"O. c #F4757A",
"+. c #023B85",
"@. c #0A4089",
"#. c #14498E",
"$. c #1B4E91",
"%. c #184F93",
"&. c #1F5496",
"*. c #2D5C9A",
"=. c #3F6AA3",
"-. c #4871A7",
";. c #4471A8",
":. c #4D78AC",
">. c #ED7A81",
",. c #7190BA",
"<. c #7596BF",
"1. c #7A97BF",
"2. c #7E9CC2",
"3. c #C98C9D",
"4. c #D28796",
"5. c #DF8C97",
"6. c #E4858E",
"7. c #EB848B",
"8. c #F58185",
"9. c #F6878B",
"0. c #F69397",
"q. c #F7999C",
"w. c #F9A2A5",
"e. c #FAA7AA",
"r. c #F9B3B6",
"t. c #FABCBF",
"y. c #B3C7DD",
"u. c #B3C7DE",
"i. c #DDD4DF",
"p. c #F6C6C9",
"a. c #FBCCCD",
"s. c #F5CDD0",
"d. c #E0D2DB",
"f. c #FBD0D1",
"g. c #FBD0D2",
"h. c #FBD1D3",
"j. c #FCD4D5",
"k. c #FCD5D6",
"l. c #FCD6D8",
"z. c #FEDADB",
"x. c #FCDEDF",
"c. c #FFDEDE",
"v. c #CAD6E6",
"b. c #D4DEEA",
"n. c #DCE4EF",
"m. c #E0E7F0",
"M. c #E3E9F2",
"N. c #E9EEF5",
"B. c #E8F0F7",
"V. c #E8F1F7",
"C. c #FEF5F6",
"Z. c #FEF6F7",
"A. c #F2F5F9",
"S. c #F5F8FA",
"D. c #F7FBFD",
"F. c #FEF8F8",
"G. c #FFF9F8",
"H. c #FFF9F9",
"J. c #FFFBFB",
"K. c #F8FBFD",
"L. c #FFFDFE",
"P. c white",
"I. c None",
/* pixels */
"I.I.I.I.I.I.I.I.I.I.I.I.I.I.I.I.I.I.I.I.I.I.I.I.I.I.I.I.I.I.I.I.",
"I.I.I.I.I.I.I.I.I.I.I.I.I.I./ ^ ^ / I.I.I.I.I.I.I.I.I.I.I.I.I.I.",
"I.I.I.I.I.I.I.I.I.I.~ Y D M b x x b M D Y ~ I.I.I.I.I.I.I.I.I.I.",
"I.I.I.I.I.I.I.I.I.P m j t t h h h h t t j m K I.I.I.I.I.I.I.I.I.",
"I.I.I.I.I.I.I.J N j i h h h h h h h h h h i j N J I.I.I.I.I.I.I.",
"I.I.I.I.I.I.S n h h h h h h h h h h h h h h h h n S I.I.I.I.I.I.",
"I.I.I.I.I.V b h h h h h h h h h h h h h h h h h h b V I.I.I.I.I.",
"I.I.I.I.I.v h h h h h h h h h h h h h h h h h h h h v I.I.I.I.I.",
"I.I.I.I.c j h h h h h t q q e h h h h h h h t q q e j c I.I.I.I.",
"I.I.I.I.f h h h h h e H ` } R h h h h h h t L ] { U t f I.I.I.I.",
"I.I.I.4 j h h h h t ' a.C.H.c.o.z h h h t | g.Z.G.z...j 3 I.I.I.",
"I.I.I.5 h h h h e W l.P.P.m.y.i.[ w h e ( x.P.P.n.u.d._ > I.I.I.",
"I.I.I.p h h h h q O.L.P.N.-.@.;.5.l h q 8.P.P.M.=.@.:.6.8 I.I.I.",
"I.I.I.u h h h h q 9.P.P.b.$.+.%.3.B h e 0.P.P.v.#.+.&.4.d I.I.I.",
"I.I.I.u h h h h q  .F.P.S.1.*.<.7.y h q X.J.P.A.,.*.2.>.6 I.I.I.",
"I.I.I.u h h h h t C r.P.P.K.V.s.Q e h t G t.P.P.D.B.p.E 7 I.I.I.",
"I.I.I.u h h h h h r I 0.f.k.e.) t h h h e T q.h.j.w.! r u I.I.I.",
"I.I.I.u h h h h h h t h Z F x e h h h h h e j A D z e h u I.I.I.",
"I.I.I.u h h h h h h h h t t h h h h h h h h h t t h h h u I.I.I.",
"I.I.I.u h h h h h h h h h h h h h h h h h h h h h h h h u I.I.I.",
"I.I.I.u h h h h h h h h h h h h h h h h h h h h h h h h u I.I.I.",
"I.I.I.u h h h h h h h h h h h h h h h h h h h h h h h h u I.I.I.",
"I.I.I.u h h h h h h h h h h h h h h h h h h h h h h h h u I.I.I.",
"I.I.I.u h h h h h h h h h h h h h h h h h h h h h h h h u I.I.I.",
"I.I.I.u h h h h h h h h h h h h h h h h h h h h h h h h u I.I.I.",
"I.I.I.u h h h h h h h h h h h h h h h h h h h h h h h h u I.I.I.",
"I.I.I.u h h h h h h h h h h h h h h h h h h h h h h h h u I.I.I.",
"I.I.I.9 h h 0 * # < h h h h < % % , h h h h s = @ : h h u I.I.I.",
"I.I.I.9 k 9 O I.I.I.2 h h 2 I.I.I.I.< h h g = I.I.I.: k 9 I.I.I.",
"I.I.I.; 9 + I.I.I.I.$ u a & I.I.I.I.O 2 g - I.I.I.I.I.1 < I.I.I.",
"I.I.I.I.. I.I.I.I.I.I.. X I.I.I.I.I.I.  o I.I.I.I.I.I.I.. I.I.I.",
"I.I.I.I.I.I.I.I.I.I.I.I.I.I.I.I.I.I.I.I.I.I.I.I.I.I.I.I.I.I.I.I."
};
