/* XPM */
static char *d233e2c6db1149519d8efa323553e558yEK5uSpiTz9UUFkZ[] = {
/* columns rows colors chars-per-pixel */
"32 32 6 1 ",
"  c #352625",
". c #493229",
"X c #5E3D2D",
"o c #074B40",
"O c #0B6E43",
"+ c #0D8144",
/* pixels */
"OOoo  ....................  ooOO",
"OOoo  ....................  ooOO",
"oo  ................XX......  oo",
"oo  ................XX......  oo",
"  ......................XX....  ",
"  ......................XX....  ",
"....  ....    ..................",
"....  ....    ..................",
"..XX......    ....XXXX......XX..",
"..XX......    ....XXXX......XX..",
"..................XXXX..........",
"..................XXXX..........",
"......XX............    ........",
"......XX............    ........",
"....................    ........",
"....................    ........",
"................................",
"................................",
"................................",
"................................",
"..    ............XX......XXXX..",
"..    ............XX......XXXX..",
"..    ....................XXXX..",
"..    ....................XXXX..",
"................  ..............",
"................  ..............",
"................................",
"................................",
"++oo..  ............  ......oo++",
"++oo..  ............  ......oo++",
"++OOoo........  ..........ooOO++",
"++OOoo........  ..........ooOO++"
};
