/* XPM */
static char *_1896b2d53da455a8739a79bc32d2598m4t3M5VaqKgruEio[] = {
/* columns rows colors chars-per-pixel */
"32 32 2 1 ",
"  c None",
". c #FFCC00",
/* pixels */
"                                ",
"             ......             ",
"          ............          ",
"        ................        ",
"      ....................      ",
"     ......................     ",
"    ........................    ",
"   ..........................   ",
"   ..........................   ",
"  ............................  ",
"  ............................  ",
" .............................. ",
" .............................. ",
"............................... ",
"................................",
"................................",
"................................",
"................................",
"...............  ...............",
"...............  ...............",
" .............    ............. ",
" .............    ............. ",
" ............      ............ ",
"  ...........      ...........  ",
"  ..........        ..........  ",
"   .........        .........   ",
"    .......          .......    ",
"     .....           ......     ",
"      ....            ....      ",
"       ..             ...       ",
"                                ",
"                                "
};
