/* XPM */
static char *_6765_6add09fad850702f7ef14b1e25c6b11280d4b56c00c19f49f9f0ff2d384ed4f7[] = {
/* columns rows colors chars-per-pixel */
"128 128 2 1 ",
"  c #FFCC00",
". c None",
/* pixels */
"................................................................................................................................",
"....................................................                  ..........................................................",
"...............................................                            .....................................................",
"...........................................                                    .................................................",
"........................................                                          ..............................................",
".....................................                                                ...........................................",
"...................................                                                    .........................................",
".................................                                                        .......................................",
"...............................                                                            .....................................",
".............................                                                                ...................................",
"...........................                                                                    .................................",
"..........................                                                                      ................................",
"........................                                                                          ..............................",
".......................                                                                            .............................",
"......................                                                                              ............................",
"....................                                                                                  ..........................",
"...................                                                                                    .........................",
"..................                                                                                      ........................",
".................                                                                                        .......................",
"................                                                                                          ......................",
"...............                                                                                            .....................",
"..............                                                                                              ....................",
".............                                                                                                ...................",
"............                                                                                                  ..................",
"............                                                                                                  ..................",
"...........                                                                                                    .................",
"..........                                                                                                      ................",
".........                                                                                                        ...............",
".........                                                                                                        ...............",
"........                                                                                                          ..............",
".......                                                                                                            .............",
".......                                                                                                            .............",
"......                                                                                                              ............",
"......                                                                                                              ............",
".....                                                                                                                ...........",
".....                                                                                                                ...........",
"......                                                                                                                ..........",
"........                                                                                                              ..........",
"..........                                                                                                             .........",
"............                                                                                                           .........",
"..............                                                                                                          ........",
"................                                                                                                        ........",
"..................                                                                                                      ........",
"....................                                                                                                     .......",
"......................                                                                                                   .......",
"........................                                                                                                 .......",
"..........................                                                                                                ......",
"............................                                                                                              ......",
"..............................                                                                                            ......",
"................................                                                                                           .....",
"..................................                                                                                         .....",
"....................................                                                                                       .....",
"......................................                                                                                     .....",
"........................................                                                                                   .....",
"..........................................                                                                                 .....",
"............................................                                                                                ....",
"..............................................                                                                              ....",
"................................................                                                                            ....",
"..................................................                                                                          ....",
"....................................................                                                                        ....",
"......................................................                                                                      ....",
"........................................................                                                                    ....",
"..........................................................                                                                  ....",
"............................................................                                                                ....",
"............................................................                                                                ....",
"..........................................................                                                                  ....",
"........................................................                                                                    ....",
"......................................................                                                                      ....",
"...................................................                                                                         ....",
".................................................                                                                           ....",
"...............................................                                                                             ....",
".............................................                                                                               ....",
"...........................................                                                                                 ....",
".........................................                                                                                  .....",
".......................................                                                                                    .....",
".....................................                                                                                      .....",
"...................................                                                                                        .....",
".................................                                                                                          .....",
"...............................                                                                                           ......",
".............................                                                                                             ......",
"...........................                                                                                               ......",
".........................                                                                                                 ......",
".......................                                                                                                  .......",
".....................                                                                                                    .......",
"...................                                                                                                      .......",
".................                                                                                                       ........",
"...............                                                                                                         ........",
".............                                                                                                           ........",
"...........                                                                                                            .........",
".........                                                                                                              .........",
".......                                                                                                               ..........",
".....                                                                                                                 ..........",
".....                                                                                                                ...........",
".....                                                                                                                ...........",
"......                                                                                                              ............",
"......                                                                                                              ............",
".......                                                                                                            .............",
"........                                                                                                          ..............",
"........                                                                                                          ..............",
".........                                                                                                        ...............",
"..........                                                                                                      ................",
"..........                                                                                                      ................",
"...........                                                                                                    .................",
"............                                                                                                  ..................",
".............                                                                                                ...................",
"..............                                                                                              ....................",
"..............                                                                                             .....................",
"...............                                                                                            .....................",
"................                                                                                          ......................",
".................                                                                                       ........................",
"...................                                                                                    .........................",
"....................                                                                                  ..........................",
".....................                                                                                ...........................",
"......................                                                                              ............................",
".......................                                                                           ..............................",
".........................                                                                        ...............................",
"..........................                                                                      ................................",
"............................                                                                  ..................................",
"..............................                                                              ....................................",
"...............................                                                            .....................................",
".................................                                                        .......................................",
"....................................                                                  ..........................................",
"......................................                                              ............................................",
".........................................                                        ...............................................",
"............................................                                  ..................................................",
"................................................                          ......................................................",
".......................................................            .............................................................",
"................................................................................................................................"
};
