/* XPM */
static char *d7315f13bc774380ca07ce9d9de5bf74MF5iFArNLvA7s8hP[] = {
/* columns rows colors chars-per-pixel */
"128 128 2 1 ",
"  c None",
". c #FFCC00",
/* pixels */
"                                                                                                                                ",
"                                                                                                                                ",
"                                                                                                                                ",
"                                                                                                                                ",
"                                                       ..................                                                       ",
"                                                 .............................                                                  ",
"                                              ....................................                                              ",
"                                           ..........................................                                           ",
"                                        ................................................                                        ",
"                                      ....................................................                                      ",
"                                    ........................................................                                    ",
"                                  ............................................................                                  ",
"                                ................................................................                                ",
"                              ...................................................................                               ",
"                             ......................................................................                             ",
"                           .........................................................................                            ",
"                          ............................................................................                          ",
"                         ..............................................................................                         ",
"                       .................................................................................                        ",
"                      ...................................................................................                       ",
"                     .....................................................................................                      ",
"                    ........................................................................................                    ",
"                   ..........................................................................................                   ",
"                  ...........................................................................................                   ",
"                 .............................................................................................                  ",
"                ...............................................................................................                 ",
"               .................................................................................................                ",
"               ..................................................................................................               ",
"              ....................................................................................................              ",
"             .....................................................................................................              ",
"            .......................................................................................................             ",
"            ........................................................................................................            ",
"           ..........................................................................................................           ",
"          ...........................................................................................................           ",
"          ............................................................................................................          ",
"         .............................................................................................................          ",
"         ..............................................................................................................         ",
"        ................................................................................................................        ",
"        ................................................................................................................        ",
"       ..................................................................................................................       ",
"       ..................................................................................................................       ",
"      ...................................................................................................................       ",
"      ....................................................................................................................      ",
"     .....................................................................................................................      ",
"     ......................................................................................................................     ",
"     ......................................................................................................................     ",
"    .......................................................................................................................     ",
"    ........................................................................................................................    ",
"    ........................................................................................................................    ",
"   .........................................................................................................................    ",
"   ..........................................................................................................................   ",
"   ..........................................................................................................................   ",
"   ..........................................................................................................................   ",
"  ...........................................................................................................................   ",
"  ............................................................................................................................  ",
"  ............................................................................................................................  ",
"  ............................................................................................................................  ",
"  ............................................................................................................................  ",
" .............................................................................................................................  ",
" .............................................................................................................................  ",
" .............................................................................................................................  ",
" .............................................................................................................................. ",
" .............................................................................................................................. ",
" .............................................................................................................................. ",
" .............................................................................................................................. ",
" .............................................................................................................................. ",
" .............................................................................................................................. ",
" .............................................................................................................................. ",
" ..............................................................  .............................................................. ",
" ..............................................................  .............................................................. ",
" .............................................................    ............................................................. ",
" .............................................................    ............................................................. ",
" ............................................................      ............................................................ ",
" ............................................................      ...........................................................  ",
" ...........................................................        ..........................................................  ",
" ...........................................................        ..........................................................  ",
"  .........................................................         ..........................................................  ",
"  .........................................................          .........................................................  ",
"  ........................................................           .........................................................  ",
"  ........................................................            ........................................................  ",
"  .......................................................             .......................................................   ",
"   ......................................................              ......................................................   ",
"   .....................................................               ......................................................   ",
"   .....................................................                .....................................................   ",
"   ....................................................                 ....................................................    ",
"    ...................................................                  ...................................................    ",
"    ..................................................                   ...................................................    ",
"    ..................................................                    .................................................     ",
"     ................................................                     .................................................     ",
"     ................................................                      ................................................     ",
"     ...............................................                       ...............................................      ",
"      ..............................................                        ..............................................      ",
"      .............................................                         .............................................       ",
"       ............................................                          ............................................       ",
"       ...........................................                           ............................................       ",
"        ..........................................                            ..........................................        ",
"        .........................................                             ..........................................        ",
"         ........................................                              ........................................         ",
"         .......................................                               .......................................          ",
"          ......................................                                ......................................          ",
"          .....................................                                 .....................................           ",
"           ....................................                                  ....................................           ",
"            ..................................                                   ...................................            ",
"            ..................................                                    .................................             ",
"             ................................                                     .................................             ",
"              ...............................                                      ...............................              ",
"               .............................                                       ..............................               ",
"               .............................                                        ............................                ",
"                ...........................                                         ...........................                 ",
"                 ..........................                                          .........................                  ",
"                  ........................                                           .........................                  ",
"                   .......................                                            .......................                   ",
"                    .....................                                             ......................                    ",
"                     ....................                                              ....................                     ",
"                      ..................                                               ..................                       ",
"                       .................                                                ................                        ",
"                         ..............                                                 ...............                         ",
"                          .............                                                  .............                          ",
"                           ...........                                                   ...........                            ",
"                             .........                                                    .........                             ",
"                              .......                                                     .......                               ",
"                                .....                                                      .....                                ",
"                                  ..                                                       ...                                  ",
"                                                                                                                                ",
"                                                                                                                                ",
"                                                                                                                                ",
"                                                                                                                                ",
"                                                                                                                                "
};
