/* XPM */
static char *_8d1b626f72242d9bf9b675db0ee7eed5AHncOJRpSP8zqPE[] = {
/* columns rows colors chars-per-pixel */
"128 128 2 1 ",
"  c None",
". c #FFCC00",
/* pixels */
"                                                                                                                                ",
"                                                             ............                                                       ",
"                                                      ..........................                                                ",
"                                                  ..................................                                            ",
"                                               ........................................                                         ",
"                                            ..............................................                                      ",
"                                          ..................................................                                    ",
"                                       ........................................................                                 ",
"                                     ............................................................                               ",
"                                    ..............................................................                              ",
"                                  ..................................................................                            ",
"                                ......................................................................                          ",
"                               ........................................................................                         ",
"                              ...........................................................................                       ",
"                            ..............................................................................                      ",
"                           ................................................................................                     ",
"                          ..................................................................................                    ",
"                         ....................................................................................                   ",
"                        .......................................................................................                 ",
"                      ..........................................................................................                ",
"                     ............................................................................................               ",
"                     .............................................................................................              ",
"                    ..............................................................................................              ",
"                   ................................................................................................             ",
"                  ..................................................................................................            ",
"                 ....................................................................................................           ",
"                ......................................................................................................          ",
"                ......................................................................................................          ",
"               ........................................................................................................         ",
"              ..........................................................................................................        ",
"              ..........................................................................................................        ",
"             ............................................................................................................       ",
"            ..............................................................................................................      ",
"            ..............................................................................................................      ",
"           ................................................................................................................     ",
"           ................................................................................................................     ",
"          .................................................................................................................     ",
"          ...............................................................................................................       ",
"         ..............................................................................................................         ",
"         ............................................................................................................           ",
"        ...........................................................................................................             ",
"        .........................................................................................................               ",
"        .......................................................................................................                 ",
"       ......................................................................................................                   ",
"       ....................................................................................................                     ",
"       ..................................................................................................                       ",
"      .................................................................................................                         ",
"      ...............................................................................................                           ",
"      .............................................................................................                             ",
"      ...........................................................................................                               ",
"     ..........................................................................................                                 ",
"     ........................................................................................                                   ",
"     ......................................................................................                                     ",
"     ....................................................................................                                       ",
"     ..................................................................................                                         ",
"    .................................................................................                                           ",
"    ...............................................................................                                             ",
"    .............................................................................                                               ",
"    ...........................................................................                                                 ",
"    .........................................................................                                                   ",
"    ......................................................................                                                      ",
"    ....................................................................                                                        ",
"    ..................................................................                                                          ",
"    ................................................................                                                            ",
"    ................................................................                                                            ",
"    ..................................................................                                                          ",
"    ....................................................................                                                        ",
"    ......................................................................                                                      ",
"    ........................................................................                                                    ",
"    ..........................................................................                                                  ",
"    ............................................................................                                                ",
"    ..............................................................................                                              ",
"    ................................................................................                                            ",
"     .................................................................................                                          ",
"     ...................................................................................                                        ",
"     .....................................................................................                                      ",
"     .......................................................................................                                    ",
"     .........................................................................................                                  ",
"     ...........................................................................................                                ",
"      ............................................................................................                              ",
"      ..............................................................................................                            ",
"      ................................................................................................                          ",
"       .................................................................................................                        ",
"       ...................................................................................................                      ",
"       .....................................................................................................                    ",
"        ......................................................................................................                  ",
"        ........................................................................................................                ",
"        ..........................................................................................................              ",
"         ...........................................................................................................            ",
"         .............................................................................................................          ",
"          ..............................................................................................................        ",
"          ................................................................................................................      ",
"           ................................................................................................................     ",
"           ................................................................................................................     ",
"            ..............................................................................................................      ",
"            ..............................................................................................................      ",
"             ............................................................................................................       ",
"             ............................................................................................................       ",
"              ..........................................................................................................        ",
"               ........................................................................................................         ",
"               ........................................................................................................         ",
"                ......................................................................................................          ",
"                 ....................................................................................................           ",
"                  ..................................................................................................            ",
"                  ..................................................................................................            ",
"                   ................................................................................................             ",
"                    ..............................................................................................              ",
"                     ............................................................................................               ",
"                      ..........................................................................................                ",
"                       ........................................................................................                 ",
"                        ......................................................................................                  ",
"                         ....................................................................................                   ",
"                          ..................................................................................                    ",
"                            ..............................................................................                      ",
"                             ............................................................................                       ",
"                              ..........................................................................                        ",
"                                ......................................................................                          ",
"                                 ....................................................................                           ",
"                                   ................................................................                             ",
"                                     ............................................................                               ",
"                                       ........................................................                                 ",
"                                         ....................................................                                   ",
"                                           ................................................                                     ",
"                                              ..........................................                                        ",
"                                                 ....................................                                           ",
"                                                     ............................                                               ",
"                                                          ..................                                                    ",
"                                                                                                                                "
};
