/* XPM */
static char *_99ceb41d0fd4843bbd78078b1c5713aQO8LZ718LdjBpxcF[] = {
/* columns rows colors chars-per-pixel */
"32 32 2 1 ",
"  c None",
". c #FFCC00",
/* pixels */
"              ......            ",
"           ............         ",
"         ................       ",
"       ...................      ",
"      .....................     ",
"     .......................    ",
"    .........................   ",
"    ..........................  ",
"   ...........................  ",
"   ...........................  ",
"  ..........................    ",
"  ........................      ",
"  ......................        ",
" .....................          ",
" ...................            ",
" .................              ",
" .................              ",
" ...................            ",
" .....................          ",
"  ......................        ",
"  ........................      ",
"  .........................     ",
"   ..........................   ",
"   ...........................  ",
"    ..........................  ",
"    .........................   ",
"     .......................    ",
"      .....................     ",
"       ...................      ",
"         ................       ",
"           ............         ",
"             .......            "
};
