/* XPM */
static char *afd35e98e09f4849f8ea8fd835eaa5e0XoNpDdhHEMXIO2E9[] = {
/* columns rows colors chars-per-pixel */
"128 128 2 1 ",
"  c None",
". c #FFCC00",
/* pixels */
"                                                                                                                                ",
"                                                                                                                                ",
"                                                                                                                                ",
"                                                                                                                                ",
"                                                                                                                                ",
"                                  ...                                                       ..                                  ",
"                                .....                                                      .....                                ",
"                               .......                                                     .......                              ",
"                             .........                                                    .........                             ",
"                            ...........                                                   ...........                           ",
"                          .............                                                  .............                          ",
"                         ...............                                                 ..............                         ",
"                        ................                                                .................                       ",
"                       ..................                                               ..................                      ",
"                     ....................                                              ....................                     ",
"                    ......................                                             .....................                    ",
"                   .......................                                            .......................                   ",
"                  .........................                                           ........................                  ",
"                  .........................                                          ..........................                 ",
"                 ...........................                                         ...........................                ",
"                ............................                                        .............................               ",
"               ..............................                                       .............................               ",
"              ...............................                                      ...............................              ",
"             .................................                                     ................................             ",
"             .................................                                    ..................................            ",
"            ...................................                                   ..................................            ",
"           ....................................                                  ....................................           ",
"           .....................................                                 .....................................          ",
"          ......................................                                ......................................          ",
"          .......................................                               .......................................         ",
"         ........................................                              ........................................         ",
"        ..........................................                             .........................................        ",
"        ..........................................                            ..........................................        ",
"       ............................................                           ...........................................       ",
"       ............................................                          ............................................       ",
"       .............................................                         .............................................      ",
"      ..............................................                        ..............................................      ",
"      ...............................................                       ...............................................     ",
"     ................................................                      ................................................     ",
"     .................................................                     ................................................     ",
"     .................................................                    ..................................................    ",
"    ...................................................                   ..................................................    ",
"    ...................................................                  ...................................................    ",
"    ....................................................                 ....................................................   ",
"   .....................................................                .....................................................   ",
"   ......................................................               .....................................................   ",
"   ......................................................              ......................................................   ",
"   .......................................................             .......................................................  ",
"  ........................................................            ........................................................  ",
"  .........................................................           ........................................................  ",
"  .........................................................          .........................................................  ",
"  ..........................................................         .........................................................  ",
"  ..........................................................        ........................................................... ",
"  ..........................................................        ........................................................... ",
"  ...........................................................      ............................................................ ",
" ............................................................      ............................................................ ",
" .............................................................    ............................................................. ",
" .............................................................    ............................................................. ",
" ..............................................................  .............................................................. ",
" ..............................................................  .............................................................. ",
" .............................................................................................................................. ",
" .............................................................................................................................. ",
" .............................................................................................................................. ",
" .............................................................................................................................. ",
" .............................................................................................................................. ",
" .............................................................................................................................. ",
" .............................................................................................................................. ",
"  ............................................................................................................................. ",
"  ............................................................................................................................. ",
"  ............................................................................................................................. ",
"  ............................................................................................................................  ",
"  ............................................................................................................................  ",
"  ............................................................................................................................  ",
"  ............................................................................................................................  ",
"   ...........................................................................................................................  ",
"   ..........................................................................................................................   ",
"   ..........................................................................................................................   ",
"   ..........................................................................................................................   ",
"    .........................................................................................................................   ",
"    ........................................................................................................................    ",
"    ........................................................................................................................    ",
"     .......................................................................................................................    ",
"     ......................................................................................................................     ",
"     ......................................................................................................................     ",
"      .....................................................................................................................     ",
"      ....................................................................................................................      ",
"       ...................................................................................................................      ",
"       ..................................................................................................................       ",
"       ..................................................................................................................       ",
"        ................................................................................................................        ",
"        ................................................................................................................        ",
"         ..............................................................................................................         ",
"          .............................................................................................................         ",
"          ............................................................................................................          ",
"           ...........................................................................................................          ",
"           ..........................................................................................................           ",
"            ........................................................................................................            ",
"             .......................................................................................................            ",
"              .....................................................................................................             ",
"              ....................................................................................................              ",
"               ..................................................................................................               ",
"                .................................................................................................               ",
"                 ...............................................................................................                ",
"                  .............................................................................................                 ",
"                   ...........................................................................................                  ",
"                   ..........................................................................................                   ",
"                    ........................................................................................                    ",
"                      .....................................................................................                     ",
"                       ...................................................................................                      ",
"                        .................................................................................                       ",
"                         ..............................................................................                         ",
"                          ............................................................................                          ",
"                            .........................................................................                           ",
"                             ......................................................................                             ",
"                               ...................................................................                              ",
"                                ................................................................                                ",
"                                  ............................................................                                  ",
"                                    ........................................................                                    ",
"                                      ....................................................                                      ",
"                                        ................................................                                        ",
"                                           ..........................................                                           ",
"                                              ....................................                                              ",
"                                                  .............................                                                 ",
"                                                       ..................                                                       ",
"                                                                                                                                ",
"                                                                                                                                ",
"                                                                                                                                ",
"                                                                                                                                "
};
