/* XPM */
static char *d9547685bf88401587b186e1bc593530s7I20rkWphLfZLon[] = {
/* columns rows colors chars-per-pixel */
"32 32 2 1 ",
"  c None",
". c #FFCC00",
/* pixels */
"            .......             ",
"         ............           ",
"       ................         ",
"      ...................       ",
"     .....................      ",
"    .......................     ",
"   .........................    ",
"  ..........................    ",
"  ...........................   ",
"   ..........................   ",
"     .........................  ",
"      ........................  ",
"        ......................  ",
"          ..................... ",
"            ................... ",
"              ................. ",
"              ................. ",
"            ................... ",
"          ..................... ",
"        ......................  ",
"      ........................  ",
"    ..........................  ",
"  ...........................   ",
"  ...........................   ",
"  ..........................    ",
"   .........................    ",
"    .......................     ",
"     .....................      ",
"      ...................       ",
"       ................         ",
"         ............           ",
"            ......              "
};
