/* XPM */
static char *_2260d2bf8654e96b202d5db136a7fe1p4aZWZlaj7A2KVUq[] = {
/* columns rows colors chars-per-pixel */
"32 32 2 1 ",
"  c None",
". c #FFCC00",
/* pixels */
"                                ",
"                                ",
"       ...             ..       ",
"      ....            ....      ",
"     ......           .....     ",
"    .......          .......    ",
"   .........        .........   ",
"  ..........        ..........  ",
"  ...........      ...........  ",
" ............      ............ ",
" .............    ............. ",
" .............    ............. ",
"...............  ...............",
"...............  ...............",
"................................",
"................................",
"................................",
"................................",
" ...............................",
" .............................. ",
" .............................. ",
"  ............................  ",
"  ............................  ",
"   ..........................   ",
"   ..........................   ",
"    ........................    ",
"     ......................     ",
"      ....................      ",
"        ................        ",
"          ............          ",
"             ......             ",
"                                "
};
