/* XPM */
static char *_4c0490acd5d4176fce3457fdebe6014DPPtnT1latKart2j[] = {
/* columns rows colors chars-per-pixel */
"32 32 192 2 ",
"   c None",
".  c #551F1D",
"X  c #59221C",
"o  c #5F1D23",
"O  c #531E28",
"+  c #551F25",
"@  c #601D24",
"#  c #542124",
"$  c #5A2123",
"%  c #54202D",
"&  c #542D2D",
"*  c #572A33",
"=  c #522330",
"-  c #4D3628",
";  c #6C2224",
":  c #662628",
">  c #7A2928",
",  c #6F3A28",
"<  c #7C382C",
"1  c #6F2834",
"2  c #7F3F35",
"3  c #4F4A1B",
"4  c #775B1D",
"5  c #5C4620",
"6  c #6F4021",
"7  c #7B402A",
"8  c #7A4B28",
"9  c #6A5E24",
"0  c #7C5126",
"q  c #7B4535",
"w  c #7A4736",
"e  c #57762B",
"r  c #6B612A",
"t  c #67792B",
"y  c #7B6438",
"u  c #5A2841",
"i  c #752C4C",
"p  c #5D5F43",
"a  c #5C4655",
"s  c #7A4246",
"d  c #794756",
"f  c #596242",
"g  c #666340",
"h  c #706546",
"j  c #6F7948",
"k  c #7C7E53",
"l  c #803F13",
"z  c #882929",
"x  c #952C28",
"c  c #822A34",
"v  c #912F3E",
"b  c #973233",
"n  c #8D3C30",
"m  c #AA2E2B",
"M  c #AC3E26",
"N  c #B23129",
"B  c #A93236",
"V  c #B63432",
"C  c #BB3A34",
"Z  c #C13D2B",
"A  c #C33831",
"S  c #98571E",
"D  c #864413",
"F  c #A2451D",
"G  c #9F651F",
"H  c #824A2A",
"J  c #84552B",
"K  c #88582D",
"L  c #834634",
"P  c #82453C",
"I  c #894839",
"U  c #83593D",
"Y  c #865732",
"T  c #915134",
"R  c #B24121",
"E  c #B64533",
"W  c #AD5C3A",
"Q  c #8A6A27",
"!  c #847629",
"~  c #877239",
"^  c #977F35",
"/  c #876437",
"(  c #A4603C",
")  c #A6783A",
"_  c #9A3342",
"`  c #953141",
"'  c #9B4540",
"]  c #8C5044",
"[  c #834D58",
"{  c #85695D",
"}  c #AD7040",
"|  c #BB7A4C",
" . c #B87743",
".. c #A16E59",
"X. c #AD7051",
"o. c #876067",
"O. c #B37E65",
"+. c #A37F70",
"@. c #CB6D46",
"#. c #549C28",
"$. c #7C973C",
"%. c #6C8A36",
"&. c #7D9940",
"*. c #7D8553",
"=. c #8C8E37",
"-. c #938C36",
";. c #8F943B",
":. c #8C9634",
">. c #9B923A",
",. c #A6893B",
"<. c #B58F3D",
"1. c #A49436",
"2. c #A8923B",
"3. c #84B52E",
"4. c #8BA636",
"5. c #91A938",
"6. c #87B430",
"7. c #93B934",
"8. c #94B93A",
"9. c #9BB738",
"0. c #A2AC36",
"q. c #A3A535",
"w. c #9FC739",
"e. c #9EC636",
"r. c #A5C63A",
"t. c #AACC3C",
"y. c #A1C83A",
"u. c #B0CF3E",
"i. c #B5D43F",
"p. c #BAD73F",
"a. c #BAD83F",
"s. c #808A49",
"d. c #9D9247",
"f. c #868F57",
"g. c #819949",
"h. c #A58043",
"j. c #B88045",
"k. c #A99841",
"l. c #BF9F40",
"z. c #A08454",
"x. c #89A645",
"c. c #93A841",
"v. c #9AB442",
"b. c #9AB643",
"n. c #BCA444",
"m. c #ABA757",
"M. c #AFB65A",
"N. c #A5B757",
"B. c #B0B559",
"V. c #B5AD4F",
"C. c #989367",
"Z. c #AC8D6E",
"A. c #B0967B",
"S. c #B6AA6A",
"D. c #C78249",
"F. c #C7A542",
"G. c #C5BE52",
"H. c #C2A26D",
"J. c #C9B86A",
"K. c #BBCD4C",
"L. c #B2C847",
"P. c #B3D441",
"I. c #BBD740",
"U. c #BCD842",
"Y. c #C4CA5C",
"T. c #C4D655",
"R. c #C2DA48",
"E. c #C7CB69",
"W. c #D3C573",
"Q. c #B8AA96",
"!. c #D1B18D",
"~. c #CAA596",
"^. c #D8BF96",
"/. c #C6AE89",
"(. c #CEB7A5",
"). c #D8BBA4",
"_. c #CFC08E",
"`. c #DCC195",
"'. c #DBC295",
"]. c #E0D990",
"[. c #E3E598",
"{. c #D7C8A6",
"}. c #E6CBA2",
"|. c #E2C9A7",
" X c #E4D2BD",
".X c PaleGoldenrod",
"XX c #F1D3C1",
"oX c #F4DFC1",
"OX c #F9E2C7",
"+X c #F9E2C9",
"@X c #F2E0C0",
"#X c #FEEAE4",
/* pixels */
"                                          i _ `                 ",
"                              $.&.&.      c B `                 ",
"                          %.v.8.7.7.8.$.w x V _                 ",
"                        s.v.L.P.P.P.P.b.,.R V v                 ",
"                      f.b.P.p.i.a.p.i.i.<.R V _                 ",
"                    *.x.w.p.p.p.p.p.p.I.F.R m v                 ",
"                  h x.3.w.P.p.p.a.p.p.I.F.F F 8                 ",
"                s y c.6.w.U.a.a.p.I.p.U.F.D h.{ w               ",
"                s Y ! :.y.U.a.p.a.p.a.U.<.D T Y q               ",
"                s L 0 :.y.U.U.a.U.U.p.U.u.Q H H L               ",
"                  L 0 ;.r.U.U.U.a.a.a.a.L.k.K L P               ",
"                  L J ) q.9.U.U.R.U.U.r.0.,.K L P               ",
"                  P L ) j.0.r.i.a.U.t.0.<.) T I s               ",
"                    P X.) -.5.L.U.p.7.-.) | ]                   ",
"                      P < 6 4.L.T.K.9.9 , O.[                   ",
"              #X#X{.S./ +.Q.~ m.W.J.~ A./.O.[                   ",
"              XX+X.XW.Q A. XZ.!.}.`.Z.).|...[                   ",
"              ~.|.[.Y.t z.^.oX+XoX+XOX|.H.U d                   ",
"              o.C.L.b.4.$.&._.'.`.`.`.W.Y.S.{                   ",
"                  *.j &.#.#.N.N.B.B.N.K.U.E.                    ",
"                    a p e %.=.>.2.1.0.i.R.m.                    ",
"                      - 3 9 4 S S G Y.T.m.&                     ",
"                      p e t ;.1.,.2.J.[.J.*                     ",
"                      h t t =.=.-.k.'. X(.*                     ",
"                    # w 0 J J 0 8 ] ).XX~.*                     ",
"                    # < ( |  .7 X ; I ' n %                     ",
"                    $ > ( D.D.7 . # : @ :                       ",
"                    : z E @.@.n # % = O                         ",
"                    @ z N C C > O                               ",
"                    @ b C C C >                                 ",
"                      c x x b 1                                 ",
"                      # . X # u                                 "
};
