/* XPM */
static char *_fd046dc1708411bc9df93c44472bba4OjPJEGEouDYoHUIw[] = {
/* columns rows colors chars-per-pixel */
"32 32 153 2 ",
"   c None",
".  c #162263",
"X  c #17246C",
"o  c #19266F",
"O  c #192773",
"+  c #1C2C7D",
"@  c #1D2D82",
"#  c #1D2F88",
"$  c #1F318D",
"%  c #223497",
"&  c #23369C",
"*  c #213A99",
"=  c #2437A1",
"-  c #2439A3",
";  c #263BA8",
":  c #2A3FB4",
">  c #1F49A4",
",  c #1F5AAF",
"<  c #2A40B6",
"1  c #2B42BD",
"2  c #274ABA",
"3  c #2D44C3",
"4  c #2E47CA",
"5  c #2F48CB",
"6  c #3049CF",
"7  c #2952C6",
"8  c #2B53CB",
"9  c #2F4FD6",
"0  c #314BD4",
"q  c #324EDD",
"w  c #2D53D3",
"e  c #2B5DD3",
"r  c #2F54DD",
"t  c #2E5BDE",
"y  c #3053DF",
"u  c #3058DF",
"i  c #2B64DF",
"p  c #286CDF",
"a  c #2675DF",
"s  c #2870DF",
"d  c #257CDE",
"f  c #324FE0",
"g  c #2E5BE0",
"h  c #3153E0",
"j  c #2D63E0",
"k  c #2A6CE1",
"l  c #3069E5",
"z  c #2775E0",
"x  c #2C75E5",
"c  c #257CE1",
"v  c #2B7BE6",
"b  c #2D79E8",
"n  c #1E8CDF",
"m  c #2083DF",
"M  c #2B85DB",
"N  c #228DDE",
"B  c #298CDB",
"V  c #2491DE",
"C  c #2C92DC",
"Z  c #299BD8",
"A  c #3391D6",
"S  c #3494DA",
"D  c #3A97DC",
"F  c #3B99DC",
"G  c #1E8CE0",
"H  c #1D91E2",
"J  c #1F9DE6",
"K  c #2285E1",
"L  c #2C82E4",
"P  c #208AE0",
"I  c #2A88E3",
"U  c #2A8EE8",
"Y  c #2292E1",
"T  c #229AE0",
"R  c #289AE4",
"E  c #2494E8",
"W  c #2B96E8",
"Q  c #259DEC",
"!  c #1FA3E6",
"~  c #1EACE4",
"^  c #1FA6EB",
"/  c #1EABEA",
"(  c #1BB1E1",
")  c #23AAE3",
"_  c #28A8E5",
"`  c #25A6E8",
"'  c #2BA1EA",
"]  c #24ACEC",
"[  c #2EAFE8",
"{  c #26B5E4",
"}  c #27B4EF",
"|  c #28B6ED",
" . c #26BBEE",
".. c #31B3EB",
"X. c #34B9EC",
"o. c #24B4F2",
"O. c #2AB3F6",
"+. c #22BEF6",
"@. c #419AD8",
"#. c #1ECFEB",
"$. c #1EDAEC",
"%. c #25C0E7",
"&. c #25C3ED",
"*. c #24CDEB",
"=. c #27D3E6",
"-. c #22D1ED",
";. c #23DBEC",
":. c #24C2F7",
">. c #20CDF1",
",. c #23C3F8",
"<. c #23CDFD",
"1. c #2FCBF8",
"2. c #37CBF6",
"3. c #3BCEF7",
"4. c #32CEF8",
"5. c #23D3F4",
"6. c #2BD2F5",
"7. c #22DDF4",
"8. c #24D2FE",
"9. c #2CD2FB",
"0. c #21DFFA",
"q. c #34D0F7",
"w. c #3DD1F5",
"e. c #32D1F9",
"r. c #30D1FB",
"t. c #30D2FB",
"y. c #31D3FB",
"u. c #31D2FB",
"i. c #36D1F8",
"p. c #35D3FB",
"a. c #35D3FA",
"s. c #1FEFED",
"d. c #1FF3EB",
"f. c #1FF2EC",
"g. c #1FE1F0",
"h. c #1FF3F1",
"j. c #20E6EF",
"k. c #22E9ED",
"l. c #21E8EF",
"z. c #22EAEF",
"x. c #20EFEE",
"c. c #22E4F6",
"v. c #21E7F6",
"b. c #21E1F1",
"n. c #21E9F0",
"m. c #20E9F6",
"M. c #33EAF0",
"N. c #48C3E9",
"B. c #41D3F7",
"V. c #44D2F4",
"C. c #47D4F6",
"Z. c #42D2F5",
"A. c #48D2F4",
/* pixels */
"                                                                ",
"                                                                ",
"                  B.e.9.e.y.y.9.a.                              ",
"                  i.9.e.2.:.<.8.8.9.1.[                         ",
"                        S Y J ^ +.8.0.5.V C                     ",
"                  B N N G G G K c v  .z.#.~ Y B A               ",
"                N G G G z j j g h f j | n.n.~ G N S             ",
"              C G G a g f f f f q q q u I n.5.c K N D           ",
"            D V K k x l f f q 0 4 3 3 4 8 { k.} K G N           ",
"          S N J o.&.7.' u q 0 1 1 1 : - - , =.U g z n B         ",
"        S N Q >.k. .v u f 0 1 1 1 - & & & > Z e q y j M   B.w.  ",
"        N J >.h.%.u q y 0 1 1 1 : & & & % % * = 0 h k B   3.9.  ",
"      F n / v.*.x y f q 3 1 1 < = & % $ @ @ @ $ 0 h k K Y :.9.  ",
"      F ` $.-.x f q h 0 3 1 1 : & & $ + + + O + : q r c H :.9.  ",
"      N.$.d._ q f f f 0 1 1 : = & % @ + + o . . O 5 h K ] <.9.  ",
"      M.s.` r y f f f 0 1 1 : = & % @ @ + . . . o 4 h K ,.9.C.  ",
"      v.#.c q f h f q q 3 1 < & & % @ @ + . . X & 0 h K ,.9.    ",
"    a.:.! x q f f f f 0 1 1 : = & % @ + + . . o 5 h g Q <.4.    ",
"    a.o.n a y f f f f 0 1 1 : = & & $ @ + O . O 5 f g O.8.y.    ",
"    8.o.G a f f f f h 0 1 1 : = & & % @ + + + $ 6 f g O.8.a.    ",
"    8.o.G c y h f f f 0 1 1 : = & & & $ @ @ @ $ 5 y U 5.6.      ",
"    8.o.N G k h h q f 0 1 1 : ; & & & & % & % ; 9 R j.$.) @.    ",
"    a.3.  V a x O.' L y 3 1 1 : = & & & & & - 5 R ;.( J C       ",
"    C.w.  D d v o.g.=.u 0 1 1 1 : ; = & & & 2 T ;.( H B         ",
"    B.w.    N a k  .f.{ y 4 1 1 1 1 < : ; = 7 W I n N S         ",
"            V G s x -.;.v q 0 3 1 1 3 4 4 9 w d n N S           ",
"              C P m ! 0.;.I h 0 4 9 9 f j k c G n C             ",
"                C n H ] 7.b. .b h f g k G G G N S               ",
"                  C N H J ^ >.5.Q H H G G n N S           Z.    ",
"                      C N G T <.8.8.,.^ ` ..X.4.a.A.            ",
"                                y.9.8.8.8.9.9.a.                ",
"                                                                "
};
