/* XPM */
static char *_f44372cd61d44f1a9cd25f95c5caa66MrMfZT4ND9XQ4ZRl[] = {
/* columns rows colors chars-per-pixel */
"32 32 5 1 ",
"  c #493229",
". c black",
"X c #7F4D23",
"o c #995E2B",
"O c #ECECEC",
/* pixels */
"................................",
"................................",
"..oooooooooooooooooooooooooooo..",
"..ooOOoooooooooooooooooooooOOo..",
"..ooOOoooooooooooooooooooooOOo..",
"..oooooooooooooooooooooooooooo..",
"................................",
"................................",
" ..oooo..XXX..XXXX..XXX..oooo.. ",
" ..oooo..XXX..XXXX..XXX..oooo.. ",
" ..oooo..XXX..XXXX..XXX..oooo.. ",
" ..oooo..XXX..XXXX..XXX..oooo.. ",
" ..oooo..XXX..XXXX..XXX..oooo.. ",
" ..oooo..XXX..XXXX..XXX..oooo.. ",
" ..oooo..XXX..XXXX..XXX..oooo.. ",
" ..oooo..XXX..XXXX..XXX..oooo.. ",
" ..oooo..XXX..XXXX..XXX..oooo.. ",
" ..oooo..XXX..XXXX..XXX..oooo.. ",
" ..oooo..XXX..XXXX..XXX..oooo.. ",
" ..oooo..XXX..XXXX..XXX..oooo.. ",
" ..oooo..XXX..XXXX..XXX..oooo.. ",
" ..oooo..XXX..XXXX..XXX..oooo.. ",
" ..oooo..XXX..XXXX..XXX..oooo.. ",
" ..oooo..XXX..XXXX..XXX..oooo.. ",
"................................",
"................................",
"..oooooooooooooooooooooooooooo..",
"..ooOOooooooooooooooooooooOOoo..",
"..ooOOooooooooooooooooooooOOoo..",
"..oooooooooooooooooooooooooooo..",
"................................",
"................................"
};
